# xmcd
#
# Track frame offsets: 
#        150
#        26152
#        36132
#        59362
#        80212
#        91235
#        109425
#        127355
#        139750
#        155767
#        179290
#        195655
#        215145
#
# Disc length: 2907 seconds
#
# Revision: 3
# Processed by: cddbd v1.5.2PL0 Copyright (c) Steve Scherf et al.
# Submitted via: ExactAudioCopyFreeDBPlugin 1.0
#
DISCID=cb0b590d
DTITLE=Fredl Fesl - Die Erste
DYEAR=1976
DGENRE=Musik-Kabarett
TTITLE0=Ritter Hadubrand
TTITLE1=Das Vogelnest
TTITLE2=Fensterstock Hiasl
TTITLE3=Taxilied
TTITLE4=Fussball-Lied
TTITLE5=Der Wirt und sein Fass
TTITLE6=Der Schimmelwirt
TTITLE7=Der Königsjodler
TTITLE8=Glocken-Song
TTITLE9=Rauch
TTITLE10=Der bayerische Stier
TTITLE11=Kellnerin a Bier
TTITLE12=Ade
EXTD=YEAR: 1976
EXTT0=
EXTT1=
EXTT2=
EXTT3=
EXTT4=
EXTT5=
EXTT6=
EXTT7=
EXTT8=
EXTT9=
EXTT10=
EXTT11=
EXTT12=
PLAYORDER=
